<svg width="97" height="26" viewBox="0 0 97 26" fill="none" xmlns="http://www.w3.org/2000/svg">
<title>Finest Logo</title>
<g clip-path="url(#clip0_57_43)">
<path d="M17.6077 0.0119629H22.5122L20.5141 3.96377H15.5248L17.6077 0.0119629Z" fill="#EF4A29"/>
<path d="M8.61014 6.06016C8.61014 4.4216 9.38517 3.95173 10.8989 3.95173H12.8849L14.9557 0.0119629H9.74846C6.15183 0.0119629 3.46344 1.8192 3.46344 5.4698V7.28907H0.0484619V11.3132H3.45133V25.4337H8.59803V11.3132H15.3553V25.4337H20.502V7.27703H8.59803V6.06016H8.61014Z" fill="#152023"/>
<path d="M35.0945 6.87964C31.8975 6.87964 30.1173 8.72301 29.2817 11.0001V7.27723H24.1714V25.4459H29.306V15.1086C29.306 11.8917 30.5533 10.458 32.6725 10.458C34.8281 10.458 36.0391 11.8917 36.0391 15.0363V15.1086V25.4459H41.1736V14.0001V13.9278C41.1736 9.91578 39.3572 6.87964 35.0945 6.87964Z" fill="#152023"/>
<path d="M53.9494 6.87964C48.4031 6.87964 44.6733 10.7592 44.6733 16.3495C44.6733 21.9399 48.2699 25.8555 53.9494 25.8555C58.3211 25.8555 61.5544 23.9158 62.7654 20.0724H57.5824C56.9406 21.5423 55.9718 22.3857 53.9858 22.3857C51.8665 22.3857 50.2923 20.9519 49.9169 17.9037H63.0682C63.1408 17.3977 63.165 16.9037 63.165 16.47C63.165 10.723 59.6047 6.87964 53.9494 6.87964ZM49.9532 14.47C50.3891 11.6266 51.9029 10.3495 53.9494 10.3495C56.105 10.3495 57.6429 11.8917 57.9215 14.47H49.9532Z" fill="#152023"/>
<path d="M77.1279 14.6387L73.8945 13.9399C72.0054 13.5423 70.9639 13.1327 70.9639 12.0965C70.9639 10.964 72.3808 10.3616 74.0277 10.3616C75.5051 10.3616 76.813 10.964 77.2247 12.0965H82.4077C81.5964 8.57843 78.133 6.87964 74.0035 6.87964C69.6318 6.87964 66.0715 9.04831 66.0715 12.5061C66.0715 15.217 67.9607 16.8194 71.4241 17.5543L74.6574 18.2531C77.14 18.8194 77.8908 19.3616 77.8908 20.458C77.8908 21.6266 76.6798 22.3616 74.4274 22.3616C72.8167 22.3616 71.2667 21.7953 70.8913 19.9519H65.7083C66.3501 23.9278 69.7045 25.8435 74.2215 25.8435C79.1018 25.8435 82.7953 23.7712 82.7953 20.0604C82.771 17.1086 80.9546 15.47 77.1279 14.6387Z" fill="#152023"/>
<path d="M95.1473 21.6989C93.6699 21.6989 92.8949 21.229 92.8949 19.6627V19.5904V12.1206H96.8911V8.07237H92.8949V2.98804L87.7482 4.75912V8.07237H84.3574V12.1085H87.7482V19.988V20.0603C87.7482 23.6748 90.4366 25.4459 94.0332 25.4459H96.9275V21.6989H95.1473Z" fill="#152023"/>
</g>
<defs>
<clipPath id="clip0_57_43">
<rect width="97" height="26" fill="white"/>
</clipPath>
</defs>
</svg>