<?xml version="1.0" encoding="utf-8"?>
<!-- Generator: Adobe Illustrator 23.0.4, SVG Export Plug-In . SVG Version: 6.00 Build 0)  -->
<svg version="1.1" id="Layer_1" xmlns="http://www.w3.org/2000/svg" xmlns:xlink="http://www.w3.org/1999/xlink" x="0px" y="0px"
	 viewBox="0 0 770 140" style="enable-background:new 0 0 770 140;" xml:space="preserve">
<style type="text/css">
	.st0{fill:#181818;}
	.st1{fill:#FFFFFF;}
</style>
<g>
	<g>
		<path class="st0" d="M175.5,69.9c0-22.9,17.3-37.4,38.5-37.4c15.1,0,24.5,7.6,29.9,16.1l-12.8,6.9c-3.3-5.1-9.4-9.4-17.1-9.4
			c-13.1,0-22.7,10.1-22.7,23.7s9.5,23.7,22.7,23.7c6.4,0,12.5-2.8,15.4-5.5v-8.7h-19.1V66h34.5v27.7c-7.4,8.2-17.7,13.7-30.8,13.7
			C192.9,107.4,175.5,92.7,175.5,69.9z"/>
		<path class="st0" d="M253.6,69.9c0-21.8,15.9-37.4,37.7-37.4c21.9,0,37.8,15.6,37.8,37.4s-15.9,37.4-37.8,37.4
			C269.5,107.3,253.6,91.7,253.6,69.9z M313.3,69.9c0-13.5-8.7-23.7-22-23.7s-21.9,10.2-21.9,23.7c0,13.4,8.6,23.7,21.9,23.7
			C304.6,93.7,313.3,83.4,313.3,69.9z"/>
		<path class="st0" d="M336.5,69.9c0-21.8,15.9-37.4,37.7-37.4c21.9,0,37.8,15.6,37.8,37.4s-15.9,37.4-37.8,37.4
			C352.4,107.3,336.5,91.7,336.5,69.9z M396.2,69.9c0-13.5-8.7-23.7-22-23.7s-21.9,10.2-21.9,23.7c0,13.4,8.6,23.7,21.9,23.7
			C387.5,93.7,396.2,83.4,396.2,69.9z"/>
		<path class="st0" d="M422.9,106V33.7h28.5c22.7,0,38.4,14.4,38.4,36.2S474.1,106,451.4,106H422.9z M474,69.9
			c0-12.8-7.8-22.7-22.7-22.7h-13.1v45.2h13.1C465.7,92.5,474,82.2,474,69.9z"/>
		<path class="st0" d="M553.8,106l-12.7-49.6L528.5,106h-16.4l-20.7-72.3h17.2L521.4,86l13.8-52.2h12L560.8,86l12.6-52.2h17.3
			L570.2,106H553.8z"/>
		<path class="st0" d="M643.1,106l-4.4-12.2h-31l-4.6,12.2h-17.6l28-72.3h19.3l27.9,72.3H643.1z M623.2,49.1l-11.3,31.1h22.5
			L623.2,49.1z"/>
		<path class="st0" d="M667.4,106V33.7h15.4v58.7h30.6V106H667.4z"/>
		<path class="st0" d="M724.1,106V33.7h15.4v58.7H770V106H724.1z"/>
	</g>
	<circle class="st0" cx="70" cy="70" r="70"/>
	<path class="st1" d="M106,88.9L89.7,60.8c-0.6-1-1.7-1.7-2.9-1.7s-2.3,0.6-2.9,1.7L73.8,78.2c-0.9,1.6-0.4,3.7,1.2,4.6
		s3.7,0.4,4.6-1.2l7.2-12.4l13.4,23.1c0.1,0.2,0.1,0.4,0,0.7c-0.1,0.2-0.3,0.3-0.6,0.3H40.4c-0.3,0-0.5-0.1-0.6-0.3
		c-0.1-0.2-0.1-0.4,0-0.7L69.4,41c0.1-0.2,0.3-0.3,0.6-0.3c0.3,0,0.5,0.1,0.6,0.3l6.1,10.6c0.9,1.6,3,2.2,4.6,1.2
		c1.6-0.9,2.2-3,1.2-4.6l-6.1-10.6C75.1,35.4,72.7,34,70,34l0,0c-2.7,0-5.1,1.4-6.4,3.7L34,88.9c-1.3,2.3-1.3,5.1,0,7.4
		s3.7,3.7,6.4,3.7h59.2c2.7,0,5.1-1.4,6.4-3.7C107.3,94,107.3,91.2,106,88.9z"/>
</g>
</svg>
