<svg width="140" height="23" viewBox="0 0 140 23" fill="none" xmlns="http://www.w3.org/2000/svg">
<g clip-path="url(#clip0_9617_58530)">
<path d="M0 15.7691V2.63477C1.73441 2.63477 3.13833 4.02364 3.13833 5.73363V18.8653C1.40392 18.8653 0 17.4764 0 15.7664V15.7691Z" fill="black"/>
<path d="M7.3672 18.8673H4.42188V6.08805H7.31432V9.45843H7.56285C8.27935 7.09316 9.9318 5.76172 12.1051 5.76172C14.8045 5.76172 16.0974 7.55525 16.0974 10.3304V18.8673H13.1521V11.0927C13.1521 9.54197 12.4647 8.40111 10.6747 8.40111C8.6918 8.40111 7.36985 9.70644 7.36985 11.6357V18.8673H7.3672Z" fill="black"/>
<path d="M24.9549 19.2197C22.586 19.2197 21.0737 17.6977 20.4391 15.4682H20.2461V23C18.6201 23 17.3008 21.6973 17.3008 20.0917V6.08805H20.2461V9.40622H20.4391C21.1265 7.20281 22.5595 5.76172 24.8994 5.76172C27.9558 5.76172 29.6637 8.15309 29.6637 12.5051C29.6637 16.8571 27.8738 19.2197 24.9549 19.2197ZM26.7449 12.5051C26.7449 9.73255 25.7534 8.3985 23.5774 8.3985C21.539 8.3985 20.2461 9.81348 20.2461 12.043V13.022C20.2461 15.1706 21.5681 16.6378 23.551 16.6378C25.727 16.6378 26.7449 15.2515 26.7449 12.5051Z" fill="black"/>
<path d="M39.6064 15.4941H39.3314C38.6149 17.8594 36.9625 19.2196 34.8156 19.2196C32.0898 19.2196 30.7969 17.3973 30.7969 14.6248V6.08789H33.7713V13.8625C33.7713 15.4132 34.4587 16.5541 36.2222 16.5541C38.2316 16.5541 39.5271 15.2487 39.5271 13.3194V6.08789H42.5015V18.8671H39.6091V15.4967L39.6064 15.4941Z" fill="black"/>
<path d="M45.4453 8.45395H43.6289V6.08868H45.4453V2.63477H48.4197V6.08868H52.219V8.45395H48.4197V14.5708C48.4197 15.8213 48.8877 16.4739 50.1832 16.4739C50.8442 16.4739 51.4232 16.3382 52.0551 16.1476L52.412 18.7583C51.447 19.0585 50.7886 19.2204 49.4931 19.2204C46.6562 19.2204 45.4453 17.372 45.4453 14.978V8.45395Z" fill="black"/>
<path d="M80.2472 6.7046C79.7687 4.75182 78.2325 3.21674 76.2628 2.71288C68.8493 0.812315 64.2383 4.37066 64.2383 10.6572C64.2383 15.8237 67.1836 19.2202 72.4979 19.2202C79.0389 19.2202 82.0398 14.0197 80.2472 6.7046ZM72.4688 16.5286C68.918 16.5286 67.3475 14.1894 67.3475 10.6572C67.3475 7.12492 68.9445 4.92151 72.4952 4.92151C76.046 4.92151 77.6165 7.23196 77.6165 10.6572C77.6165 14.0824 76.046 16.5286 72.4688 16.5286Z" fill="black"/>
<path d="M90.8095 15.4941H90.5346C89.8181 17.8594 88.1656 19.2196 86.0188 19.2196C83.2929 19.2196 82 17.3973 82 14.6248V6.08789H84.9744V13.8625C84.9744 15.4132 85.6618 16.5541 87.4253 16.5541C89.4347 16.5541 90.7302 15.2487 90.7302 13.3194V6.08789H93.7046V18.8671H90.8122V15.4967L90.8095 15.4941Z" fill="black"/>
<path d="M96.6875 8.45395H94.8711V6.08868H96.6875V2.63477H99.6619V6.08868H103.461V8.45395H99.6619V14.5708C99.6619 15.8213 100.13 16.4739 101.425 16.4739C102.086 16.4739 102.665 16.3382 103.297 16.1476L103.654 18.7583C102.689 19.0585 102.031 19.2204 100.735 19.2204C97.8984 19.2204 96.6875 17.372 96.6875 14.978V8.45395Z" fill="black"/>
<path d="M112.415 5.76108C110.075 5.76108 108.642 7.20217 107.955 9.40297H107.762V6.0848H104.816V20.0858C104.816 21.6914 106.136 22.9941 107.762 22.9941V15.4623H107.955C108.589 17.6918 110.102 19.2139 112.471 19.2139C115.389 19.2139 117.179 16.8486 117.179 12.4992C117.179 8.14985 115.471 5.75586 112.415 5.75586V5.76108ZM111.067 16.6371C109.084 16.6371 107.762 15.1699 107.762 13.0214V12.0424C107.762 9.81284 109.055 8.39786 111.093 8.39786C113.269 8.39786 114.26 9.7293 114.26 12.5044C114.26 15.2796 113.243 16.6371 111.067 16.6371Z" fill="black"/>
<path d="M127.157 15.4941H126.882C126.166 17.8594 124.513 19.2196 122.366 19.2196C119.641 19.2196 118.348 17.3973 118.348 14.6248V6.08789H121.322V13.8625C121.322 15.4132 122.009 16.5541 123.773 16.5541C125.782 16.5541 127.078 15.2487 127.078 13.3194V6.08789H130.052V18.8671H127.16V15.4967L127.157 15.4941Z" fill="black"/>
<path d="M133.035 8.45395H131.219V6.08868H133.035V2.63477H136.01V6.08868H139.809V8.45395H136.01V14.5708C136.01 15.8213 136.478 16.4739 137.773 16.4739C138.434 16.4739 139.013 16.3382 139.645 16.1476L140.002 18.7583C139.037 19.0585 138.378 19.2204 137.083 19.2204C134.246 19.2204 133.035 17.372 133.035 14.978V8.45395Z" fill="black"/>
<path d="M58.9955 22.9765C58.2525 22.9765 57.6523 22.3787 57.6523 21.6425V0C58.3953 0 58.9955 0.597844 58.9955 1.33405V22.9765Z" fill="black"/>
</g>
<defs>
<clipPath id="clip0_9617_58530">
<rect width="140" height="23" fill="black"/>
</clipPath>
</defs>
</svg>
