<svg width="145" height="23" viewBox="0 0 145 23" fill="none" xmlns="http://www.w3.org/2000/svg">
<mask id="mask0_742_10318" style="mask-type:luminance" maskUnits="userSpaceOnUse" x="0" y="0" width="145" height="23">
<path d="M145 0H0V22.2813H145V0Z" fill="white"/>
</mask>
<g mask="url(#mask0_742_10318)">
<path d="M145 4.97656H142.52V21.8192H145V4.97656Z" fill="currentColor"/>
<path d="M72.4927 4.54297C67.5558 4.54297 63.5527 8.5135 63.5527 13.4126H66.0366C66.0366 9.8802 68.9325 7.00729 72.4927 7.00729C76.0532 7.00729 78.9491 9.88123 78.9491 13.4126H81.4326C81.4326 8.51453 77.4299 4.54297 72.4927 4.54297Z" fill="currentColor"/>
<path d="M67.5318 22.2813C72.4689 22.2813 76.4717 18.3108 76.4717 13.4116H73.9882C73.9882 16.9441 71.0923 19.8173 67.5318 19.8173C63.9712 19.8173 61.0753 16.943 61.0753 13.4116H58.5918C58.5918 18.3097 62.5946 22.2813 67.5318 22.2813Z" fill="currentColor"/>
<path d="M100.557 4.97803V13.3256C100.557 16.8924 97.6613 19.7934 94.1011 19.7934C90.5405 19.7934 87.6446 16.8913 87.6446 13.3256V4.97803H85.1611V13.3256C85.1611 18.2714 89.1639 22.2814 94.1011 22.2814C99.0379 22.2814 103.041 18.2714 103.041 13.3256V4.97803H100.557Z" fill="currentColor"/>
<path d="M108.011 21.8195V13.4715C108.011 9.90477 110.907 7.00408 114.467 7.00408C118.028 7.00408 120.924 9.90614 120.924 13.4715V21.8195H123.407V13.4715C123.407 8.52572 119.404 4.51611 114.467 4.51611C109.53 4.51611 105.527 8.52572 105.527 13.4715V21.8195H108.011Z" fill="currentColor"/>
<path d="M129.849 4.51616C127.525 4.51616 125.408 5.40536 123.818 6.86119C124.323 7.57248 124.739 8.33451 125.064 9.13355C126.246 7.82615 127.953 7.00277 129.849 7.00277C133.41 7.00277 136.306 9.90482 136.306 13.4705V21.8185H138.789V13.4705C138.789 8.52475 134.786 4.51514 129.849 4.51514V4.51616Z" fill="currentColor"/>
<path d="M2.48355 21.8195V13.4715C2.48355 9.90477 5.37947 7.00408 8.93995 7.00408C12.5004 7.00408 15.3964 9.90614 15.3964 13.4715V21.8195H17.8799V13.4715C17.8799 8.52572 13.8771 4.51611 8.93995 4.51611C4.00282 4.51611 0 8.52572 0 13.4715V21.8195H2.48355Z" fill="currentColor"/>
<path d="M24.3206 4.51616C21.9962 4.51616 19.8796 5.40536 18.29 6.86119C18.7944 7.57248 19.2109 8.33451 19.5354 9.13355C20.7178 7.82615 22.4252 7.00277 24.3206 7.00277C27.8811 7.00277 30.777 9.90482 30.777 13.4705V21.8185H33.2606V13.4705C33.2606 8.52475 29.2578 4.51514 24.3206 4.51514V4.51616Z" fill="currentColor"/>
<path d="M145 0H142.52V2.48488H145V0Z" fill="currentColor"/>
<path d="M54.87 13.2989V4.99751H52.3896V7.28152C50.7617 5.59499 48.4725 4.54297 45.9331 4.54297C40.9959 4.54297 36.9932 8.5135 36.9932 13.4126C36.9932 18.3118 40.9959 22.2823 45.9331 22.2823C47.3615 22.2823 48.7121 21.9492 49.9091 21.3578V18.4547C48.8125 19.3079 47.4318 19.8194 45.9331 19.8194C42.3726 19.8194 39.4767 16.9451 39.4767 13.4137C39.4767 9.88226 42.3736 7.00832 45.9331 7.00832C49.4926 7.00832 52.3896 9.88226 52.3896 13.4137C52.3896 13.4894 52.3865 13.5638 52.3834 13.6396C52.3865 13.6893 52.3896 13.739 52.3896 13.7897V21.8216H54.87V13.5265C54.87 13.4894 54.8731 13.4521 54.8731 13.4137C54.8731 13.3753 54.871 13.3393 54.87 13.3009V13.2989Z" fill="currentColor"/>
</g>
</svg>