<svg width="90" height="16" viewBox="0 0 90 16" fill="none" xmlns="http://www.w3.org/2000/svg">
<path d="M24.069 15.9767V4.3996L32.4044 15.9767H35.3913V0.00830078L32.636 0.00830078V11.5774L24.231 0.00830078L21.2905 0.00830078V15.9767H24.069Z" fill="black"/>
<path d="M54.2766 3.82074H54.3465V15.9766H57.125V0.00830078L53.0264 0.00830078L48.3723 12.8277L43.649 0.00830078L39.5046 0.00830078V15.9766H42.2831V3.82074L46.7981 15.9998H49.8314L54.2766 3.82074Z" fill="black"/>
<path d="M61.2445 0.00927734V15.9776H64.0463V11.1384L66.4309 8.56832L71.1316 15.9776H74.4656L68.3757 6.34552L73.8402 0.00927734L70.2979 0.00927734L66.1994 4.95627L64.0463 7.66531V0.00927734L61.2445 0.00927734Z" fill="black"/>
<path d="M89.0211 4.81605C89.0211 1.20401 86.6831 0 83.4182 0L76.5878 0.00798486V15.9763H79.3895V9.67841H83.0011L86.1042 15.9763H89.1835V15.8142L85.8261 9.3311C87.6552 8.79856 89.0211 7.363 89.0211 4.81605ZM79.3895 2.36172H83.4182C85.1548 2.36172 86.1734 3.21842 86.1734 4.83921C86.1734 6.45999 85.1082 7.31669 83.4182 7.31669H79.3895V2.36172Z" fill="black"/>
<path d="M0 6.65348L0 0L14.6377 0V6.65348H11.9763V8.64952L7.98417 6.65348V8.64952L3.99209 6.65348V8.64952L0 6.65348Z" fill="#11F250"/>
<path d="M0.000488281 13.3071L0.000488281 15.9685H14.6381V13.3071H0.000488281Z" fill="#11F250"/>
</svg>
