<?xml version="1.0" encoding="UTF-8"?>
<svg id="Logo" xmlns="http://www.w3.org/2000/svg" xmlns:xlink="http://www.w3.org/1999/xlink" viewBox="0 0 1920 249.6">
  <defs>
    <style>
      .cls-1 {
        fill: none;
      }

      .cls-2 {
        clip-path: url(#clippath);
      }
    </style>
    <clipPath id="clippath">
      <rect class="cls-1" width="1920" height="249.6"/>
    </clipPath>
  </defs>
  <g class="cls-2">
    <g>
      <path d="M554.2,0h-28.36v244.43h28.36V0Z"/>
      <path d="M615.92,117.85c8.97,3.62,17.53,8.23,25.51,13.84,16.35-17.75,26.36-41.45,26.36-67.45,0-2.84-.14-5.66-.37-8.44h-27.94c.32,2.77.51,5.58.51,8.44,0,21.3-9.32,40.44-24.08,53.6Z"/>
      <path d="M655.04,186.98c-.49-.85-.96-1.69-1.47-2.52-.08-.13-.15-.26-.23-.38-15.21-24.73-41.02-42.34-71.17-46.67v27.83c32.92,6.49,57.83,35.61,57.83,70.44,0,2.96-.2,5.88-.54,8.74h27.95c.25-2.89.39-5.8.39-8.74,0-17.68-4.64-34.3-12.75-48.71h0Z"/>
      <path d="M1920,55.81h-27.8v188.62h27.8V55.81Z"/>
      <path d="M397.85,78.53c39.9,0,72.35,32.19,72.35,71.74s-32.45,71.74-72.35,71.74-72.35-32.19-72.35-71.74,32.45-71.74,72.35-71.74ZM397.85,50.94c-55.33,0-100.19,44.47-100.19,99.33s44.86,99.33,100.19,99.33,100.18-44.47,100.18-99.33-44.86-99.33-100.18-99.33Z"/>
      <path d="M1107.46,50.94c-55.33,0-100.19,44.47-100.19,99.33h27.83c0-39.56,32.45-71.74,72.35-71.74s72.35,32.19,72.35,71.74h27.83c0-54.85-44.86-99.33-100.18-99.33Z"/>
      <path d="M1051.87,249.6c55.33,0,100.19-44.47,100.19-99.33h-27.83c0,39.56-32.45,71.74-72.35,71.74s-72.35-32.19-72.35-71.74h-27.83c0,54.85,44.86,99.33,100.19,99.33Z"/>
      <path d="M155.79,50.94c-55.33,0-100.19,44.47-100.19,99.33h27.83c0-39.56,32.45-71.74,72.35-71.74s72.35,32.19,72.35,71.74h27.83c0-54.85-44.86-99.33-100.19-99.33Z"/>
      <path d="M100.19,249.6c55.33,0,100.19-44.47,100.19-99.33h-27.83c0,39.56-32.45,71.74-72.35,71.74S27.84,189.82,27.84,150.27H0C0,205.12,44.87,249.6,100.19,249.6Z"/>
      <path d="M809.8,78.53c39.9,0,72.35,32.19,72.35,71.74s-32.46,71.74-72.35,71.74-72.36-32.19-72.36-71.74,32.46-71.74,72.36-71.74ZM809.8,50.94c-55.33,0-100.19,44.47-100.19,99.33s44.86,99.33,100.19,99.33,100.18-44.47,100.18-99.33-44.86-99.33-100.18-99.33Z"/>
      <path d="M1421.95,55.82v93.49c0,39.94-32.45,72.43-72.35,72.43s-72.35-32.5-72.35-72.43V55.82h-27.83v93.49c0,55.39,44.86,100.29,100.19,100.29s100.18-44.91,100.18-100.29V55.82h-27.83Z"/>
      <path d="M447.94,0h-100.18v27.83h100.18V0Z"/>
      <path d="M1505.48,244.43v-93.49c0-39.94,32.45-72.43,72.35-72.43s72.35,32.5,72.35,72.43v93.49h27.83v-93.49c0-55.39-44.86-100.29-100.19-100.29s-100.18,44.91-100.18,100.29v93.49h27.83Z"/>
      <path d="M1750.2,50.64c-26.05,0-49.77,9.96-67.58,26.26,5.65,7.97,10.32,16.5,13.96,25.45,13.25-14.64,32.38-23.86,53.62-23.86,39.9,0,72.35,32.5,72.35,72.43v93.49h27.83v-93.49c0-55.39-44.86-100.29-100.19-100.29h0Z"/>
      <path d="M1920,.07h-27.8v27.83h27.8V.07Z"/>
    </g>
  </g>
</svg>