<svg width="496" height="500" viewBox="0 0 496 500" fill="none" xmlns="http://www.w3.org/2000/svg">
<path d="M283.957 29.0783H211.928C203.898 29.0783 197.391 22.5706 197.391 14.5392C197.391 6.50775 203.898 0 211.928 0H283.957C291.988 0 298.495 6.50775 298.495 14.5392C298.495 22.5706 291.988 29.0783 283.957 29.0783Z" fill="black"/>
<path d="M412.857 96.3542H82.7722C74.7415 96.3542 68.2344 89.8465 68.2344 81.8151C68.2344 73.7837 74.7415 67.2759 82.7722 67.2759H412.857C420.888 67.2759 427.395 73.7837 427.395 81.8151C427.395 89.8465 420.888 96.3542 412.857 96.3542Z" fill="black"/>
<path d="M460.802 163.642H361.038C353.007 163.642 346.5 157.134 346.5 149.103C346.5 141.071 353.007 134.563 361.038 134.563H460.802C468.833 134.563 475.34 141.071 475.34 149.103C475.34 157.134 468.833 163.642 460.802 163.642Z" fill="black"/>
<path d="M134.748 163.642H34.9832C26.9525 163.642 20.4453 157.134 20.4453 149.103C20.4453 141.071 26.9525 134.563 34.9832 134.563H134.748C142.778 134.563 149.285 141.071 149.285 149.103C149.285 157.134 142.778 163.642 134.748 163.642Z" fill="black"/>
<path d="M481.206 230.891H289.928C281.898 230.891 275.391 224.383 275.391 216.352C275.391 208.32 281.898 201.813 289.928 201.813H481.206C489.237 201.813 495.744 208.32 495.744 216.352C495.744 224.383 489.237 230.891 481.206 230.891Z" fill="black"/>
<path d="M205.82 230.891H14.5379C6.50716 230.891 0 224.383 0 216.352C0 208.32 6.50716 201.813 14.5379 201.813H205.82C213.851 201.813 220.358 208.32 220.358 216.352C220.358 224.383 213.851 230.891 205.82 230.891Z" fill="black"/>
<path d="M481.206 298.186H289.928C281.898 298.186 275.391 291.679 275.391 283.647C275.391 275.616 281.898 269.108 289.928 269.108H481.206C489.237 269.108 495.744 275.616 495.744 283.647C495.744 291.679 489.237 298.186 481.206 298.186Z" fill="black"/>
<path d="M205.82 298.186H14.5379C6.50716 298.186 0 291.679 0 283.647C0 275.616 6.50716 269.108 14.5379 269.108H205.82C213.851 269.108 220.358 275.616 220.358 283.647C220.358 291.679 213.851 298.186 205.82 298.186Z" fill="black"/>
<path d="M460.96 365.47H289.928C281.898 365.47 275.391 358.962 275.391 350.931C275.391 342.899 281.898 336.391 289.928 336.391H460.96C468.99 336.391 475.497 342.899 475.497 350.931C475.497 358.962 468.99 365.47 460.96 365.47Z" fill="black"/>
<path d="M206.014 365.47H34.9832C26.9525 365.47 20.4453 358.962 20.4453 350.931C20.4453 342.899 26.9525 336.391 34.9832 336.391H206.014C214.045 336.391 220.552 342.899 220.552 350.931C220.552 358.962 214.045 365.47 206.014 365.47Z" fill="black"/>
<path d="M412.857 432.715H82.7722C74.7415 432.715 68.2344 426.208 68.2344 418.176C68.2344 410.145 74.7415 403.637 82.7722 403.637H412.857C420.888 403.637 427.395 410.145 427.395 418.176C427.395 426.208 420.888 432.715 412.857 432.715Z" fill="black"/>
<path d="M283.957 499.999H211.928C203.898 499.999 197.391 493.491 197.391 485.46C197.391 477.428 203.898 470.921 211.928 470.921H283.957C291.988 470.921 298.495 477.428 298.495 485.46C298.495 493.491 291.988 499.999 283.957 499.999Z" fill="black"/>
</svg>
