<?xml version="1.0" encoding="UTF-8" standalone="no"?>
<svg
   width="100%"
   height="100%"
   viewBox="0 0 2048 600"
   version="1.1"
   xml:space="preserve"
   style="fill-rule:evenodd;clip-rule:evenodd;stroke-linejoin:round;stroke-miterlimit:2;"
   id="svg92"
   sodipodi:docname="UNHCR.svg"
   inkscape:version="1.1.1 (3bf5ae0d25, 2021-09-20)"
   xmlns:inkscape="http://www.inkscape.org/namespaces/inkscape"
   xmlns:sodipodi="http://sodipodi.sourceforge.net/DTD/sodipodi-0.dtd"
   xmlns="http://www.w3.org/2000/svg"
   xmlns:svg="http://www.w3.org/2000/svg"
   xmlns:serif="http://www.serif.com/"><defs
   id="defs96" /><sodipodi:namedview
   id="namedview94"
   pagecolor="#ffffff"
   bordercolor="#666666"
   borderopacity="1.0"
   inkscape:pageshadow="2"
   inkscape:pageopacity="0.0"
   inkscape:pagecheckerboard="0"
   showgrid="false"
   inkscape:zoom="0.57958984"
   inkscape:cx="1023.1373"
   inkscape:cy="300.2123"
   inkscape:window-width="1920"
   inkscape:window-height="1007"
   inkscape:window-x="-9"
   inkscape:window-y="-9"
   inkscape:window-maximized="1"
   inkscape:current-layer="g86" />
    <g
   transform="matrix(2.63182,0,0,2.63182,1007.58,302.79)"
   id="g90">
        <g
   id="yhyh.svg"
   transform="matrix(1,0,0,1,-402.5,-402.5)">
            <g
   transform="matrix(4.16667,0,0,4.16667,0,0)"
   id="g86">
                <path
   d="M33.955,104.139C34.448,104.139 34.387,103.857 34.387,103.333L34.387,100.79C34.387,100.264 34.335,100.097 34.635,100.097C35.682,100.097 35.968,100.002 35.968,99.067L35.968,89.615C35.968,87.041 34.149,87.466 33.635,86.526C32.909,85.253 34.997,85.253 34.239,82.497C34.046,81.874 33.556,81.486 32.614,81.486C31.671,81.486 31.18,81.874 30.987,82.497C30.229,85.253 32.32,85.253 31.59,86.526C31.076,87.466 29.261,87.041 29.261,89.615L29.261,99.067C29.261,100.002 29.543,100.097 30.593,100.097C30.889,100.097 30.84,100.264 30.84,100.79L30.84,103.333C30.84,103.857 30.778,104.139 31.273,104.139L33.955,104.139Z"
   style="fill:#009edb;fill-opacity:1"
   id="path2" />
                <path
   d="M25.679,83.629C24.751,84.619 23.28,86.927 24.239,88.847C26.189,89.598 26.041,82.669 28.468,82.788C29.67,83.9 28.11,87.168 27.629,88.608C27.027,90.379 26.55,94.097 25.409,95.896C24.452,97.397 25.171,102.106 24.868,103.725C24.061,104.534 21.869,103.964 20.94,103.813C20.94,101.956 20.699,100.487 20.4,97.517C20.371,96.918 19.739,87.738 20.249,86.629C21.299,84.318 27.027,79.91 27.81,79.07C28.499,78.319 30.926,75.829 31.858,75.829C32.516,76.28 32.129,77.331 31.978,77.748C31.05,80.059 27.027,82.34 25.679,83.629Z"
   style="fill:#009edb;fill-opacity:1"
   id="path4" />
                <path
   d="M39.656,83.629C40.554,84.619 42.025,86.927 41.095,88.847C39.116,89.598 39.266,82.669 36.837,82.788C35.667,83.9 37.225,87.168 37.706,88.608C38.305,90.379 38.785,94.097 39.925,95.896C40.857,97.397 40.164,102.106 40.435,103.725C41.273,104.534 43.435,103.964 44.393,103.813C44.393,101.956 44.605,100.487 44.903,97.517C44.964,96.918 45.594,87.738 45.084,86.629C44.036,84.318 38.305,79.91 37.528,79.07C36.806,78.319 34.408,75.829 33.477,75.829C32.786,76.28 33.208,77.331 33.357,77.748C34.288,80.059 38.305,82.34 39.656,83.629Z"
   style="fill:#009edb;fill-opacity:1"
   id="path6" />
                <path
   d="M17.348,80.52C16.835,80.999 15.694,81.329 14.911,82.381C14.612,81.811 15.392,80.43 16.323,79.617C17.016,79.044 18.368,78.115 18.758,78.025C19.06,78.717 17.978,79.768 17.348,80.52Z"
   style="fill:#009edb;fill-opacity:1"
   id="path8" />
                <path
   d="M15.755,84.274C14.883,85.088 13.953,85.418 12.748,86.89C12.238,85.117 12.358,83.554 12.597,82.502C13.02,81.12 13.708,79.587 14.883,79.105C14.643,79.887 14.249,80.969 14.159,82.442C13.65,84.456 13.35,84.517 13.471,84.786C13.589,84.786 14.249,83.735 15.063,82.923C16.024,81.961 17.225,81.749 18.006,81.18C17.887,81.571 17.196,82.803 15.755,84.274Z"
   style="fill:#009edb;fill-opacity:1"
   id="path10" />
                <path
   d="M11.515,92.601C10.345,90.496 10.223,88.963 10.133,87.19C10.195,85.957 10.794,83.103 11.696,82.683C11.426,85.266 12.118,85.508 11.845,87.641C11.845,87.761 11.545,89.985 11.545,90.105C11.907,90.046 11.575,88.061 15.694,85.208C14.792,86.769 15.211,87.251 13.589,89.325C11.696,91.188 11.426,93.022 11.515,92.601Z"
   style="fill:#009edb;fill-opacity:1"
   id="path12" />
                <path
   d="M13.17,94.583C12.296,95.846 12.447,96.478 12.238,97.078C10.162,95.876 7.819,91.098 8.689,88.724C9.23,90.526 9.983,90.918 10.523,92.419C11.456,94.675 11.306,95.366 11.907,95.876C11.784,94.704 12.177,93.321 12.567,92.299C13.14,91.43 13.589,90.285 14.011,89.894C14.46,91.549 14.131,92.903 13.17,94.583Z"
   style="fill:#009edb;fill-opacity:1"
   id="path14" />
                <path
   d="M15.033,98.671C15.033,100.505 14.7,101.315 14.552,102.668C10.974,101.497 9.11,97.409 9.11,95.396C10.195,97.861 11.784,97.83 13.861,101.315C14.04,99.994 13.499,100.986 13.438,98.491C13.499,95.876 14.04,95.786 14.131,94.165C14.792,94.885 15.033,97.771 15.033,98.671Z"
   style="fill:#009edb;fill-opacity:1"
   id="path16" />
                <path
   d="M18.006,103.871C18.279,105.224 18.399,106.816 18.608,107.988C16.565,107.238 16.052,107.807 13.619,106.276C12.509,105.675 10.523,103.15 10.646,101.346C13.048,104.022 13.471,103.72 14.643,104.712C15.722,105.583 16.593,106.878 17.377,106.697C17.434,105.976 15.604,104.412 15.843,99.904C16.323,100.414 17.645,102.458 18.006,103.871Z"
   style="fill:#009edb;fill-opacity:1"
   id="path18" />
                <path
   d="M22.064,107.238C22.696,108.139 22.547,108.529 24.167,110.393C23.776,110.574 21.465,111.173 19.93,111.234C18.911,111.234 15.304,110.274 14.101,107.807C16.172,108.92 16.205,108.65 18.97,109.252C20.952,109.702 22.365,110.332 22.906,110.274C22.787,110.003 21.253,109.372 20.202,108.048C19.148,106.636 19.39,105.044 18.457,103.871C19.089,103.69 21.551,106.576 22.064,107.238Z"
   style="fill:#009edb;fill-opacity:1"
   id="path20" />
                <path
   d="M47.819,80.52C48.301,80.999 49.474,81.329 50.224,82.381C50.554,81.811 49.744,80.43 48.814,79.617C48.153,79.044 46.801,78.115 46.378,78.025C46.078,78.717 47.158,79.768 47.819,80.52Z"
   style="fill:#009edb;fill-opacity:1"
   id="path22" />
                <path
   d="M49.413,84.274C50.254,85.088 51.186,85.418 52.388,86.89C52.901,85.117 52.779,83.554 52.539,82.502C52.149,81.12 51.428,79.587 50.254,79.105C50.526,79.887 50.886,80.969 50.976,82.442C51.486,84.456 51.788,84.517 51.668,84.786C51.548,84.786 50.886,83.735 50.076,82.923C49.142,81.961 47.94,81.749 47.13,81.18C47.249,81.571 47.971,82.803 49.413,84.274Z"
   style="fill:#009edb;fill-opacity:1"
   id="path24" />
                <path
   d="M53.622,92.601C54.822,90.496 54.912,88.963 55.003,87.19C54.942,85.957 54.342,83.103 53.471,82.683C53.711,85.266 53.02,85.508 53.319,87.641C53.319,87.761 53.591,89.985 53.591,90.105C53.261,90.046 53.561,88.061 49.474,85.208C50.345,86.769 49.922,87.251 51.548,89.325C53.471,91.188 53.711,93.022 53.622,92.601Z"
   style="fill:#009edb;fill-opacity:1"
   id="path26" />
                <path
   d="M51.999,94.583C52.84,95.846 52.689,96.478 52.901,97.078C54.973,95.876 57.347,91.098 56.446,88.724C55.935,90.526 55.154,90.918 54.644,92.419C53.681,94.675 53.831,95.366 53.261,95.876C53.38,94.704 52.959,93.321 52.569,92.299C52.027,91.43 51.548,90.285 51.125,89.894C50.705,91.549 51.005,92.903 51.999,94.583Z"
   style="fill:#009edb;fill-opacity:1"
   id="path28" />
                <path
   d="M50.103,98.671C50.103,100.505 50.463,101.315 50.615,102.668C54.162,101.497 56.056,97.409 56.056,95.396C54.942,97.861 53.38,97.83 51.279,101.315C51.096,99.994 51.637,100.986 51.698,98.491C51.637,95.876 51.096,95.786 51.005,94.165C50.345,94.885 50.103,97.771 50.103,98.671Z"
   style="fill:#009edb;fill-opacity:1"
   id="path30" />
                <path
   d="M47.13,103.871C46.858,105.224 46.77,106.816 46.559,107.988C48.572,107.238 49.081,107.807 51.517,106.276C52.629,105.675 54.644,103.15 54.522,101.346C52.118,104.022 51.668,103.72 50.526,104.712C49.444,105.583 48.543,106.878 47.759,106.697C47.701,105.976 49.535,104.412 49.323,99.904C48.814,100.414 47.489,102.458 47.13,103.871Z"
   style="fill:#009edb;fill-opacity:1"
   id="path32" />
                <path
   d="M43.071,107.238C42.47,108.139 42.62,108.529 40.966,110.393C41.388,110.574 43.673,111.173 45.237,111.234C46.227,111.234 49.834,110.274 51.034,107.807C48.961,108.92 48.932,108.65 46.167,109.252C44.183,109.702 42.801,110.332 42.23,110.274C42.35,110.003 43.914,109.372 44.935,108.048C45.986,106.636 45.747,105.044 46.709,103.871C46.047,103.69 43.584,106.576 43.071,107.238Z"
   style="fill:#009edb;fill-opacity:1"
   id="path34" />
                <path
   d="M27.445,115.713L26.842,115.413C26.842,115.413 30.662,110.754 37.213,111.115C43.764,111.475 43.313,113.008 46.83,112.768C47.22,112.738 46.528,113.248 46.528,113.248C46.528,113.248 43.104,114.57 38.867,113.127C34.657,111.685 31.921,110.813 27.445,115.713Z"
   style="fill:#009edb;fill-opacity:1"
   id="path36" />
                <path
   d="M37.813,115.713L38.416,115.413C38.416,115.413 34.625,110.754 28.074,111.115C21.494,111.475 21.943,113.008 18.428,112.768C18.039,112.738 18.728,113.248 18.728,113.248C18.728,113.248 22.155,114.57 26.394,113.127C30.63,111.685 33.365,110.813 37.813,115.713Z"
   style="fill:#009edb;fill-opacity:1"
   id="path38" />
                <path
   d="M67.768,109.103L65.481,109.103L65.481,107.693L71.732,107.693L71.732,109.103L69.445,109.103L69.445,115.322L67.768,115.322L67.768,109.103Z"
   style="fill:#009edb;fill-opacity:1"
   id="path40" />
                <path
   d="M72.254,107.693L73.773,107.693L73.773,110.567L73.804,110.567C74.189,109.947 74.851,109.648 75.417,109.648C77.031,109.648 77.436,110.556 77.436,111.925L77.436,115.322L75.919,115.322L75.919,112.201C75.919,111.294 75.653,110.844 74.948,110.844C74.125,110.844 73.773,111.303 73.773,112.427L73.773,115.322L72.254,115.322L72.254,107.693Z"
   style="fill:#009edb;fill-opacity:1"
   id="path42" />
                <path
   d="M79.605,112.928C79.648,113.889 80.118,114.328 80.962,114.328C81.572,114.328 82.062,113.954 82.158,113.612L83.494,113.612C83.067,114.915 82.158,115.472 80.909,115.472C79.168,115.472 78.087,114.275 78.087,112.565C78.087,110.909 79.232,109.648 80.909,109.648C82.79,109.648 83.698,111.229 83.591,112.928L79.605,112.928ZM82.074,111.966C81.934,111.198 81.603,110.792 80.866,110.792C79.905,110.792 79.627,111.54 79.605,111.966L82.074,111.966Z"
   style="fill:#009edb;fill-opacity:1"
   id="path44" />
                <path
   d="M93.324,112.437C93.324,114.499 92.105,115.504 90.065,115.504C88.014,115.504 86.816,114.509 86.816,112.437L86.816,107.693L88.494,107.693L88.494,112.437C88.494,113.27 88.708,114.093 90.065,114.093C91.261,114.093 91.646,113.569 91.646,112.437L91.646,107.693L93.324,107.693L93.324,112.437Z"
   style="fill:#009edb;fill-opacity:1"
   id="path46" />
                <path
   d="M94.445,107.693L96.112,107.693L99.295,112.811L99.317,112.811L99.317,107.693L100.888,107.693L100.888,115.322L99.211,115.322L96.036,110.215L96.015,110.215L96.015,115.322L94.445,115.322L94.445,107.693Z"
   style="fill:#009edb;fill-opacity:1"
   id="path48" />
                <path
   d="M105.984,108.995L107.821,108.995C108.568,108.995 108.975,109.317 108.975,110.054C108.975,110.825 108.568,111.144 107.821,111.144L105.984,111.144L105.984,108.995ZM104.305,115.322L105.984,115.322L105.984,112.341L107.661,112.341C108.505,112.341 108.814,112.693 108.932,113.495C109.018,114.104 108.996,114.841 109.199,115.322L110.877,115.322C110.578,114.894 110.589,113.997 110.556,113.516C110.503,112.747 110.268,111.946 109.444,111.732L109.444,111.71C110.289,111.368 110.652,110.695 110.652,109.799C110.652,108.645 109.788,107.693 108.419,107.693L104.305,107.693L104.305,115.322Z"
   style="fill:#009edb;fill-opacity:1"
   id="path50" />
                <path
   d="M112.918,111.966C112.939,111.54 113.216,110.792 114.178,110.792C114.915,110.792 115.247,111.198 115.386,111.966L112.918,111.966ZM116.902,112.928C117.01,111.229 116.101,109.648 114.221,109.648C112.543,109.648 111.4,110.909 111.4,112.565C111.4,114.275 112.479,115.472 114.221,115.472C115.472,115.472 116.379,114.915 116.807,113.612L115.472,113.612C115.374,113.954 114.883,114.328 114.274,114.328C113.431,114.328 112.96,113.889 112.918,112.928L116.902,112.928Z"
   style="fill:#009edb;fill-opacity:1"
   id="path52" />
                <path
   d="M117.939,110.813L117.03,110.813L117.03,109.799L117.939,109.799L117.939,109.37C117.939,108.399 118.548,107.693 119.787,107.693C120.054,107.693 120.332,107.725 120.589,107.737L120.589,108.868C120.408,108.848 120.226,108.837 120.032,108.837C119.628,108.837 119.456,109.007 119.456,109.468L119.456,109.799L120.503,109.799L120.503,110.813L119.456,110.813L119.456,115.322L117.939,115.322L117.939,110.813Z"
   style="fill:#009edb;fill-opacity:1"
   id="path54" />
                <path
   d="M126.155,115.322L124.712,115.322L124.712,114.552L124.68,114.552C124.295,115.171 123.633,115.472 122.992,115.472C121.379,115.472 120.973,114.562 120.973,113.195L120.973,109.799L122.49,109.799L122.49,112.918C122.49,113.827 122.757,114.275 123.463,114.275C124.285,114.275 124.637,113.815 124.637,112.693L124.637,109.799L126.155,109.799L126.155,115.322Z"
   style="fill:#009edb;fill-opacity:1"
   id="path56" />
                <path
   d="M129.647,114.018C128.718,114.018 128.42,113.152 128.42,112.361C128.42,111.54 128.793,110.792 129.647,110.792C130.632,110.792 130.941,111.593 130.941,112.49C130.941,113.281 130.514,114.018 129.647,114.018ZM132.383,109.799L130.941,109.799L130.941,110.536L130.918,110.536C130.557,109.894 130.001,109.648 129.274,109.648C127.725,109.648 126.903,110.952 126.903,112.383C126.903,113.901 127.607,115.162 129.264,115.162C129.925,115.162 130.588,114.883 130.918,114.306L130.941,114.306L130.941,115.033C130.951,115.824 130.566,116.4 129.723,116.4C129.188,116.4 128.729,116.208 128.59,115.643L127.083,115.643C127.157,116.902 128.43,117.416 129.52,117.416C132.063,117.416 132.383,115.877 132.383,114.969L132.383,109.799Z"
   style="fill:#009edb;fill-opacity:1"
   id="path58" />
                <path
   d="M134.659,111.966C134.679,111.54 134.958,110.792 135.92,110.792C136.657,110.792 136.987,111.198 137.126,111.966L134.659,111.966ZM138.645,112.928C138.751,111.229 137.843,109.648 135.962,109.648C134.286,109.648 133.142,110.909 133.142,112.565C133.142,114.275 134.221,115.472 135.962,115.472C137.212,115.472 138.121,114.915 138.547,113.612L137.212,113.612C137.116,113.954 136.625,114.328 136.016,114.328C135.172,114.328 134.702,113.889 134.659,112.928L138.645,112.928Z"
   style="fill:#009edb;fill-opacity:1"
   id="path60" />
                <path
   d="M140.6,111.966C140.621,111.54 140.898,110.792 141.86,110.792C142.597,110.792 142.928,111.198 143.066,111.966L140.6,111.966ZM144.583,112.928C144.69,111.229 143.783,109.648 141.902,109.648C140.224,109.648 139.081,110.909 139.081,112.565C139.081,114.275 140.161,115.472 141.902,115.472C143.153,115.472 144.061,114.915 144.488,113.612L143.153,113.612C143.056,113.954 142.564,114.328 141.956,114.328C141.111,114.328 140.642,113.889 140.6,112.928L144.583,112.928Z"
   style="fill:#009edb;fill-opacity:1"
   id="path62" />
                <path
   d="M150.717,109.573L150.738,109.573L151.7,112.372L149.724,112.372L150.717,109.573ZM146.988,115.322L148.686,115.322L149.286,113.624L152.138,113.624L152.713,115.322L154.456,115.322L151.604,107.693L149.883,107.693L146.988,115.322Z"
   style="fill:#009edb;fill-opacity:1"
   id="path64" />
                <path
   d="M157.298,114.018C156.368,114.018 156.069,113.152 156.069,112.361C156.069,111.54 156.442,110.792 157.298,110.792C158.28,110.792 158.591,111.593 158.591,112.49C158.591,113.281 158.164,114.018 157.298,114.018ZM160.033,109.799L158.591,109.799L158.591,110.536L158.569,110.536C158.206,109.894 157.65,109.648 156.925,109.648C155.374,109.648 154.552,110.952 154.552,112.383C154.552,113.901 155.258,115.162 156.913,115.162C157.575,115.162 158.239,114.883 158.569,114.306L158.591,114.306L158.591,115.033C158.6,115.824 158.217,116.4 157.373,116.4C156.839,116.4 156.378,116.208 156.241,115.643L154.733,115.643C154.808,116.902 156.08,117.416 157.17,117.416C159.712,117.416 160.033,115.877 160.033,114.969L160.033,109.799Z"
   style="fill:#009edb;fill-opacity:1"
   id="path66" />
                <path
   d="M162.308,111.966C162.329,111.54 162.607,110.792 163.569,110.792C164.306,110.792 164.638,111.198 164.775,111.966L162.308,111.966ZM166.294,112.928C166.401,111.229 165.492,109.648 163.612,109.648C161.933,109.648 160.792,110.909 160.792,112.565C160.792,114.275 161.87,115.472 163.612,115.472C164.863,115.472 165.77,114.915 166.196,113.612L164.863,113.612C164.766,113.954 164.273,114.328 163.665,114.328C162.822,114.328 162.351,113.889 162.308,112.928L166.294,112.928Z"
   style="fill:#009edb;fill-opacity:1"
   id="path68" />
                <path
   d="M166.956,109.799L168.398,109.799L168.398,110.567L168.43,110.567C168.815,109.947 169.478,109.648 170.118,109.648C171.731,109.648 172.138,110.556 172.138,111.925L172.138,115.322L170.621,115.322L170.621,112.201C170.621,111.294 170.353,110.844 169.648,110.844C168.825,110.844 168.473,111.303 168.473,112.427L168.473,115.322L166.956,115.322L166.956,109.799Z"
   style="fill:#009edb;fill-opacity:1"
   id="path70" />
                <path
   d="M176.816,111.743C176.722,111.122 176.325,110.792 175.696,110.792C174.723,110.792 174.402,111.775 174.402,112.586C174.402,113.378 174.712,114.328 175.663,114.328C176.368,114.328 176.774,113.88 176.871,113.206L178.334,113.206C178.143,114.669 177.126,115.472 175.674,115.472C174.007,115.472 172.885,114.296 172.885,112.639C172.885,110.92 173.911,109.648 175.705,109.648C177.01,109.648 178.206,110.332 178.301,111.743L176.816,111.743Z"
   style="fill:#009edb;fill-opacity:1"
   id="path72" />
                <path
   d="M181.722,116.016C181.389,116.902 180.866,117.265 179.818,117.265C179.509,117.265 179.2,117.245 178.89,117.213L178.89,115.962C179.179,115.983 179.476,116.026 179.777,116.016C180.299,115.962 180.471,115.417 180.299,114.979L178.356,109.799L179.98,109.799L181.23,113.581L181.251,113.581L182.457,109.799L184.029,109.799L181.722,116.016Z"
   style="fill:#009edb;fill-opacity:1"
   id="path74" />
                <path
   d="M86.119,95.326C86.119,101.588 82.734,104.594 75.837,104.594C68.939,104.594 65.523,101.588 65.523,95.326L65.523,81.469L72.482,81.469L72.482,93.775C72.482,96.084 72.482,98.963 75.869,98.963C79.159,98.963 79.159,96.084 79.159,93.775L79.159,81.469L86.119,81.469L86.119,95.326Z"
   style="fill:#009edb;fill-opacity:1"
   id="path76" />
                <path
   d="M90.294,81.469L97.411,81.469L103.992,93.553L104.055,93.553L104.055,81.469L110.634,81.469L110.634,104.055L103.866,104.055L96.937,91.718L96.874,91.718L96.874,104.055L90.294,104.055L90.294,81.469Z"
   style="fill:#009edb;fill-opacity:1"
   id="path78" />
                <path
   d="M114.906,81.469L121.865,81.469L121.865,89.314L128.383,89.314L128.383,81.469L135.344,81.469L135.344,104.055L128.383,104.055L128.383,95.103L121.865,95.103L121.865,104.055L114.906,104.055L114.906,81.469Z"
   style="fill:#009edb;fill-opacity:1"
   id="path80" />
                <path
   d="M153.153,89.884C153.026,89.06 152.394,86.562 149.515,86.562C146.255,86.562 145.211,89.724 145.211,92.762C145.211,95.799 146.255,98.963 149.515,98.963C151.856,98.963 152.774,97.318 153.185,95.198L160.018,95.198C160.018,99.754 156.316,104.594 149.704,104.594C142.398,104.594 138.252,99.436 138.252,92.762C138.252,85.644 142.745,80.932 149.704,80.932C155.904,80.962 159.323,84.221 159.923,89.884L153.153,89.884Z"
   style="fill:#009edb;fill-opacity:1"
   id="path82" />
                <path
   d="M169.886,86.844L173.147,86.844C175.803,86.844 176.594,87.667 176.594,89.093C176.594,91.116 174.822,91.339 173.526,91.339L169.886,91.339L169.886,86.844ZM162.927,104.055L169.886,104.055L169.886,96.179L173.59,96.179C176.342,96.179 176.529,98.425 176.722,100.578C176.815,101.748 176.94,102.918 177.29,104.055L184.251,104.055C183.616,103.012 183.587,100.323 183.49,99.217C183.237,96.399 182.067,94.312 180.168,93.585C182.478,92.729 183.555,90.263 183.555,87.922C183.555,83.649 180.136,81.469 176.183,81.469L162.927,81.469L162.927,104.055Z"
   style="fill:#009edb;fill-opacity:1"
   id="path84" />
            </g>
        </g>
        <g
   id="yhyh.svg1"
   serif:id="yhyh.svg">
        </g>
    </g>
</svg>
